<mxfile host="app.diagrams.net" modified="2023-04-20T14:38:44.763Z" agent="Mozilla/5.0 (Windows NT 10.0; Win64; x64) AppleWebKit/537.36 (KHTML, like Gecko) Chrome/112.0.0.0 Safari/537.36" etag="gjyKspV3EY_w2G2e7fJQ" version="21.2.1" type="device">
  <diagram name="第 1 页" id="UGW9YNje5y8IUspFWKuI">
    <mxGraphModel dx="1235" dy="618" grid="0" gridSize="10" guides="1" tooltips="1" connect="1" arrows="1" fold="1" page="0" pageScale="1" pageWidth="827" pageHeight="1169" math="0" shadow="0">
      <root>
        <mxCell id="0" />
        <mxCell id="1" parent="0" />
        <mxCell id="_MmGvdPsLG1474vWWe_J-5" style="edgeStyle=orthogonalEdgeStyle;rounded=0;orthogonalLoop=1;jettySize=auto;html=1;exitX=0.5;exitY=1;exitDx=0;exitDy=0;entryX=0.5;entryY=0;entryDx=0;entryDy=0;" edge="1" parent="1" source="_MmGvdPsLG1474vWWe_J-1" target="_MmGvdPsLG1474vWWe_J-3">
          <mxGeometry relative="1" as="geometry" />
        </mxCell>
        <mxCell id="_MmGvdPsLG1474vWWe_J-1" value="开始" style="rounded=1;whiteSpace=wrap;html=1;" vertex="1" parent="1">
          <mxGeometry x="240" y="40" width="80" height="40" as="geometry" />
        </mxCell>
        <mxCell id="_MmGvdPsLG1474vWWe_J-2" value="结束" style="rounded=1;whiteSpace=wrap;html=1;" vertex="1" parent="1">
          <mxGeometry x="240" y="520" width="80" height="40" as="geometry" />
        </mxCell>
        <mxCell id="_MmGvdPsLG1474vWWe_J-26" style="edgeStyle=orthogonalEdgeStyle;rounded=0;orthogonalLoop=1;jettySize=auto;html=1;exitX=0.5;exitY=1;exitDx=0;exitDy=0;entryX=0.5;entryY=0;entryDx=0;entryDy=0;" edge="1" parent="1" source="_MmGvdPsLG1474vWWe_J-3" target="_MmGvdPsLG1474vWWe_J-25">
          <mxGeometry relative="1" as="geometry" />
        </mxCell>
        <mxCell id="_MmGvdPsLG1474vWWe_J-32" style="edgeStyle=orthogonalEdgeStyle;rounded=0;orthogonalLoop=1;jettySize=auto;html=1;exitX=0;exitY=0.5;exitDx=0;exitDy=0;entryX=0;entryY=0.5;entryDx=0;entryDy=0;" edge="1" parent="1" source="_MmGvdPsLG1474vWWe_J-3" target="_MmGvdPsLG1474vWWe_J-6">
          <mxGeometry relative="1" as="geometry" />
        </mxCell>
        <mxCell id="_MmGvdPsLG1474vWWe_J-3" value="是否有账号" style="rhombus;whiteSpace=wrap;html=1;" vertex="1" parent="1">
          <mxGeometry x="220" y="120" width="120" height="40" as="geometry" />
        </mxCell>
        <mxCell id="_MmGvdPsLG1474vWWe_J-39" style="edgeStyle=orthogonalEdgeStyle;rounded=0;orthogonalLoop=1;jettySize=auto;html=1;exitX=0.5;exitY=1;exitDx=0;exitDy=0;entryX=0.5;entryY=0;entryDx=0;entryDy=0;" edge="1" parent="1" source="_MmGvdPsLG1474vWWe_J-6" target="_MmGvdPsLG1474vWWe_J-55">
          <mxGeometry relative="1" as="geometry">
            <mxPoint x="280" y="440" as="targetPoint" />
          </mxGeometry>
        </mxCell>
        <mxCell id="_MmGvdPsLG1474vWWe_J-6" value="用户登录" style="rounded=0;whiteSpace=wrap;html=1;" vertex="1" parent="1">
          <mxGeometry x="240" y="360" width="80" height="40" as="geometry" />
        </mxCell>
        <mxCell id="_MmGvdPsLG1474vWWe_J-29" style="edgeStyle=orthogonalEdgeStyle;rounded=0;orthogonalLoop=1;jettySize=auto;html=1;exitX=0.5;exitY=1;exitDx=0;exitDy=0;entryX=0.5;entryY=0;entryDx=0;entryDy=0;" edge="1" parent="1" source="_MmGvdPsLG1474vWWe_J-8" target="_MmGvdPsLG1474vWWe_J-6">
          <mxGeometry relative="1" as="geometry" />
        </mxCell>
        <mxCell id="_MmGvdPsLG1474vWWe_J-8" value="创建账号" style="rounded=0;whiteSpace=wrap;html=1;" vertex="1" parent="1">
          <mxGeometry x="240" y="280" width="80" height="40" as="geometry" />
        </mxCell>
        <mxCell id="_MmGvdPsLG1474vWWe_J-12" value="&lt;font face=&quot;Georgia&quot;&gt;Y&lt;/font&gt;" style="text;html=1;align=center;verticalAlign=middle;resizable=0;points=[];autosize=1;strokeColor=none;fillColor=none;" vertex="1" parent="1">
          <mxGeometry x="280" y="240" width="30" height="30" as="geometry" />
        </mxCell>
        <mxCell id="_MmGvdPsLG1474vWWe_J-13" value="&lt;font face=&quot;Georgia&quot;&gt;N&lt;/font&gt;" style="text;html=1;align=center;verticalAlign=middle;resizable=0;points=[];autosize=1;strokeColor=none;fillColor=none;" vertex="1" parent="1">
          <mxGeometry x="340" y="190" width="30" height="30" as="geometry" />
        </mxCell>
        <mxCell id="_MmGvdPsLG1474vWWe_J-17" value="&lt;font face=&quot;Georgia&quot;&gt;Y&lt;/font&gt;" style="text;html=1;align=center;verticalAlign=middle;resizable=0;points=[];autosize=1;strokeColor=none;fillColor=none;" vertex="1" parent="1">
          <mxGeometry x="200" y="110" width="30" height="30" as="geometry" />
        </mxCell>
        <mxCell id="_MmGvdPsLG1474vWWe_J-19" value="&lt;font face=&quot;Georgia&quot;&gt;Y&lt;/font&gt;" style="text;html=1;align=center;verticalAlign=middle;resizable=0;points=[];autosize=1;strokeColor=none;fillColor=none;" vertex="1" parent="1">
          <mxGeometry x="430" y="350" width="30" height="30" as="geometry" />
        </mxCell>
        <mxCell id="_MmGvdPsLG1474vWWe_J-20" value="&lt;font face=&quot;Georgia&quot;&gt;N&lt;/font&gt;" style="text;html=1;align=center;verticalAlign=middle;resizable=0;points=[];autosize=1;strokeColor=none;fillColor=none;" vertex="1" parent="1">
          <mxGeometry x="280" y="160" width="30" height="30" as="geometry" />
        </mxCell>
        <mxCell id="_MmGvdPsLG1474vWWe_J-21" value="&lt;font face=&quot;Georgia&quot;&gt;Y&lt;/font&gt;" style="text;html=1;align=center;verticalAlign=middle;resizable=0;points=[];autosize=1;strokeColor=none;fillColor=none;" vertex="1" parent="1">
          <mxGeometry x="580" y="230" width="30" height="30" as="geometry" />
        </mxCell>
        <mxCell id="_MmGvdPsLG1474vWWe_J-23" value="&lt;font face=&quot;Georgia&quot;&gt;Y&lt;/font&gt;" style="text;html=1;align=center;verticalAlign=middle;resizable=0;points=[];autosize=1;strokeColor=none;fillColor=none;" vertex="1" parent="1">
          <mxGeometry x="430" y="110" width="30" height="30" as="geometry" />
        </mxCell>
        <mxCell id="_MmGvdPsLG1474vWWe_J-28" style="edgeStyle=orthogonalEdgeStyle;rounded=0;orthogonalLoop=1;jettySize=auto;html=1;exitX=0.5;exitY=1;exitDx=0;exitDy=0;entryX=0.5;entryY=0;entryDx=0;entryDy=0;" edge="1" parent="1" source="_MmGvdPsLG1474vWWe_J-25" target="_MmGvdPsLG1474vWWe_J-8">
          <mxGeometry relative="1" as="geometry" />
        </mxCell>
        <mxCell id="_MmGvdPsLG1474vWWe_J-33" style="edgeStyle=orthogonalEdgeStyle;rounded=0;orthogonalLoop=1;jettySize=auto;html=1;exitX=1;exitY=0.5;exitDx=0;exitDy=0;entryX=1;entryY=0.5;entryDx=0;entryDy=0;" edge="1" parent="1" source="_MmGvdPsLG1474vWWe_J-25" target="_MmGvdPsLG1474vWWe_J-2">
          <mxGeometry relative="1" as="geometry" />
        </mxCell>
        <mxCell id="_MmGvdPsLG1474vWWe_J-25" value="是否要新建账号" style="rhombus;whiteSpace=wrap;html=1;" vertex="1" parent="1">
          <mxGeometry x="220" y="200" width="120" height="40" as="geometry" />
        </mxCell>
        <mxCell id="_MmGvdPsLG1474vWWe_J-44" style="edgeStyle=orthogonalEdgeStyle;rounded=0;orthogonalLoop=1;jettySize=auto;html=1;exitX=0.5;exitY=1;exitDx=0;exitDy=0;entryX=0.5;entryY=0;entryDx=0;entryDy=0;" edge="1" parent="1" source="_MmGvdPsLG1474vWWe_J-45" target="_MmGvdPsLG1474vWWe_J-49">
          <mxGeometry relative="1" as="geometry" />
        </mxCell>
        <mxCell id="_MmGvdPsLG1474vWWe_J-63" style="edgeStyle=orthogonalEdgeStyle;rounded=0;orthogonalLoop=1;jettySize=auto;html=1;exitX=0;exitY=0.5;exitDx=0;exitDy=0;entryX=0.5;entryY=0;entryDx=0;entryDy=0;" edge="1" parent="1" source="_MmGvdPsLG1474vWWe_J-45" target="_MmGvdPsLG1474vWWe_J-60">
          <mxGeometry relative="1" as="geometry" />
        </mxCell>
        <mxCell id="_MmGvdPsLG1474vWWe_J-45" value="是否要浏览同人志" style="rhombus;whiteSpace=wrap;html=1;" vertex="1" parent="1">
          <mxGeometry x="460" y="120" width="120" height="40" as="geometry" />
        </mxCell>
        <mxCell id="_MmGvdPsLG1474vWWe_J-46" value="&lt;font face=&quot;Georgia&quot;&gt;N&lt;/font&gt;" style="text;html=1;align=center;verticalAlign=middle;resizable=0;points=[];autosize=1;strokeColor=none;fillColor=none;" vertex="1" parent="1">
          <mxGeometry x="520" y="280" width="30" height="30" as="geometry" />
        </mxCell>
        <mxCell id="_MmGvdPsLG1474vWWe_J-47" value="&lt;font face=&quot;Georgia&quot;&gt;N&lt;/font&gt;" style="text;html=1;align=center;verticalAlign=middle;resizable=0;points=[];autosize=1;strokeColor=none;fillColor=none;" vertex="1" parent="1">
          <mxGeometry x="520" y="160" width="30" height="30" as="geometry" />
        </mxCell>
        <mxCell id="_MmGvdPsLG1474vWWe_J-48" style="edgeStyle=orthogonalEdgeStyle;rounded=0;orthogonalLoop=1;jettySize=auto;html=1;exitX=0.5;exitY=1;exitDx=0;exitDy=0;" edge="1" parent="1" source="_MmGvdPsLG1474vWWe_J-49" target="_MmGvdPsLG1474vWWe_J-50">
          <mxGeometry relative="1" as="geometry" />
        </mxCell>
        <mxCell id="_MmGvdPsLG1474vWWe_J-70" style="edgeStyle=orthogonalEdgeStyle;rounded=0;orthogonalLoop=1;jettySize=auto;html=1;exitX=1;exitY=0.5;exitDx=0;exitDy=0;entryX=0.5;entryY=0;entryDx=0;entryDy=0;" edge="1" parent="1" source="_MmGvdPsLG1474vWWe_J-49" target="_MmGvdPsLG1474vWWe_J-61">
          <mxGeometry relative="1" as="geometry">
            <mxPoint x="600" y="295" as="targetPoint" />
          </mxGeometry>
        </mxCell>
        <mxCell id="_MmGvdPsLG1474vWWe_J-49" value="是否要搜索同人志" style="rhombus;whiteSpace=wrap;html=1;" vertex="1" parent="1">
          <mxGeometry x="460" y="240" width="120" height="40" as="geometry" />
        </mxCell>
        <mxCell id="_MmGvdPsLG1474vWWe_J-58" style="edgeStyle=orthogonalEdgeStyle;rounded=0;orthogonalLoop=1;jettySize=auto;html=1;exitX=0.5;exitY=1;exitDx=0;exitDy=0;entryX=0.5;entryY=0;entryDx=0;entryDy=0;" edge="1" parent="1" source="_MmGvdPsLG1474vWWe_J-50" target="_MmGvdPsLG1474vWWe_J-69">
          <mxGeometry relative="1" as="geometry">
            <mxPoint x="520" y="360" as="targetPoint" />
          </mxGeometry>
        </mxCell>
        <mxCell id="_MmGvdPsLG1474vWWe_J-67" style="edgeStyle=orthogonalEdgeStyle;rounded=0;orthogonalLoop=1;jettySize=auto;html=1;exitX=0;exitY=0.5;exitDx=0;exitDy=0;entryX=0.5;entryY=0;entryDx=0;entryDy=0;" edge="1" parent="1" source="_MmGvdPsLG1474vWWe_J-50" target="_MmGvdPsLG1474vWWe_J-62">
          <mxGeometry relative="1" as="geometry" />
        </mxCell>
        <mxCell id="_MmGvdPsLG1474vWWe_J-50" value="是否要搜索作者" style="rhombus;whiteSpace=wrap;html=1;" vertex="1" parent="1">
          <mxGeometry x="460" y="360" width="120" height="40" as="geometry" />
        </mxCell>
        <mxCell id="_MmGvdPsLG1474vWWe_J-57" style="edgeStyle=orthogonalEdgeStyle;rounded=0;orthogonalLoop=1;jettySize=auto;html=1;exitX=0.5;exitY=1;exitDx=0;exitDy=0;" edge="1" parent="1" source="_MmGvdPsLG1474vWWe_J-52" target="_MmGvdPsLG1474vWWe_J-45">
          <mxGeometry relative="1" as="geometry">
            <mxPoint x="520" y="80" as="sourcePoint" />
          </mxGeometry>
        </mxCell>
        <mxCell id="_MmGvdPsLG1474vWWe_J-52" value="功能" style="rounded=0;whiteSpace=wrap;html=1;" vertex="1" parent="1">
          <mxGeometry x="480" y="40" width="80" height="40" as="geometry" />
        </mxCell>
        <mxCell id="_MmGvdPsLG1474vWWe_J-56" style="edgeStyle=orthogonalEdgeStyle;rounded=0;orthogonalLoop=1;jettySize=auto;html=1;exitX=0.5;exitY=1;exitDx=0;exitDy=0;entryX=0.5;entryY=0;entryDx=0;entryDy=0;" edge="1" parent="1" source="_MmGvdPsLG1474vWWe_J-55" target="_MmGvdPsLG1474vWWe_J-2">
          <mxGeometry relative="1" as="geometry" />
        </mxCell>
        <mxCell id="_MmGvdPsLG1474vWWe_J-55" value="功能" style="rounded=0;whiteSpace=wrap;html=1;" vertex="1" parent="1">
          <mxGeometry x="240" y="440" width="80" height="40" as="geometry" />
        </mxCell>
        <mxCell id="_MmGvdPsLG1474vWWe_J-59" value="&lt;font face=&quot;Georgia&quot;&gt;N&lt;/font&gt;" style="text;html=1;align=center;verticalAlign=middle;resizable=0;points=[];autosize=1;strokeColor=none;fillColor=none;" vertex="1" parent="1">
          <mxGeometry x="520" y="395" width="30" height="30" as="geometry" />
        </mxCell>
        <mxCell id="_MmGvdPsLG1474vWWe_J-64" style="edgeStyle=orthogonalEdgeStyle;rounded=0;orthogonalLoop=1;jettySize=auto;html=1;exitX=0.5;exitY=1;exitDx=0;exitDy=0;entryX=0;entryY=0.5;entryDx=0;entryDy=0;" edge="1" parent="1" source="_MmGvdPsLG1474vWWe_J-60" target="_MmGvdPsLG1474vWWe_J-49">
          <mxGeometry relative="1" as="geometry" />
        </mxCell>
        <mxCell id="_MmGvdPsLG1474vWWe_J-60" value="浏览模块" style="rounded=0;whiteSpace=wrap;html=1;" vertex="1" parent="1">
          <mxGeometry x="400" y="160" width="80" height="40" as="geometry" />
        </mxCell>
        <mxCell id="_MmGvdPsLG1474vWWe_J-74" style="edgeStyle=orthogonalEdgeStyle;rounded=0;orthogonalLoop=1;jettySize=auto;html=1;exitX=0.5;exitY=1;exitDx=0;exitDy=0;entryX=1;entryY=0.5;entryDx=0;entryDy=0;" edge="1" parent="1" source="_MmGvdPsLG1474vWWe_J-61" target="_MmGvdPsLG1474vWWe_J-50">
          <mxGeometry relative="1" as="geometry" />
        </mxCell>
        <mxCell id="_MmGvdPsLG1474vWWe_J-61" value="搜索模块" style="rounded=0;whiteSpace=wrap;html=1;" vertex="1" parent="1">
          <mxGeometry x="560" y="300" width="80" height="40" as="geometry" />
        </mxCell>
        <mxCell id="_MmGvdPsLG1474vWWe_J-72" style="edgeStyle=orthogonalEdgeStyle;rounded=0;orthogonalLoop=1;jettySize=auto;html=1;exitX=0.5;exitY=1;exitDx=0;exitDy=0;entryX=0;entryY=0.5;entryDx=0;entryDy=0;" edge="1" parent="1" source="_MmGvdPsLG1474vWWe_J-62" target="_MmGvdPsLG1474vWWe_J-69">
          <mxGeometry relative="1" as="geometry" />
        </mxCell>
        <mxCell id="_MmGvdPsLG1474vWWe_J-62" value="搜索模块" style="rounded=0;whiteSpace=wrap;html=1;" vertex="1" parent="1">
          <mxGeometry x="400" y="420" width="80" height="40" as="geometry" />
        </mxCell>
        <mxCell id="_MmGvdPsLG1474vWWe_J-69" value="结束" style="rounded=1;whiteSpace=wrap;html=1;" vertex="1" parent="1">
          <mxGeometry x="480" y="480" width="80" height="40" as="geometry" />
        </mxCell>
      </root>
    </mxGraphModel>
  </diagram>
</mxfile>
